<?xml version="1.0" encoding="UTF-8"?>
<svg id="_圖層_1" xmlns="http://www.w3.org/2000/svg" xmlns:xlink="http://www.w3.org/1999/xlink" version="1.1" viewBox="0 0 366.92 389.35">
  <!-- Generator: Adobe Illustrator 29.5.1, SVG Export Plug-In . SVG Version: 2.1.0 Build 141)  -->
  <defs>
    <style>
      .st0 {
        fill: url(#_未命名漸層);
      }
    </style>
    <linearGradient id="_未命名漸層" data-name="未命名漸層" x1="12484.33" y1="27063.26" x2="12484.33" y2="14073.6" gradientTransform="translate(-191.07 -402.9) scale(.03)" gradientUnits="userSpaceOnUse">
      <stop offset="0" stop-color="#80cef3"/>
      <stop offset="1" stop-color="#fff9b1"/>
    </linearGradient>
  </defs>
  <g id="_圖層_1-2">
    <path class="st0" d="M176.64,108.71c2.8-4.15,8.44-5.24,12.58-2.45,4.15,2.8,5.24,8.44,2.45,12.58l-55.11,81.58v75.72c0,5.01-4.07,9.07-9.07,9.07s-9.07-4.07-9.07-9.07v-75.07L46.28,119.1c-5.13,10.02-9.2,20.52-12.19,31.32-3.95,14.28-5.98,29.17-5.98,44.26,0,45.83,18.57,87.32,48.61,117.35,30.04,30.04,71.52,48.61,117.35,48.61,27.11,0,53.38-6.62,76.73-18.8,23.39-12.19,43.86-29.92,59.36-52.11,2.86-4.09,8.49-5.09,12.58-2.23,4.09,2.86,5.09,8.49,2.23,12.58-17.24,24.68-39.94,44.36-65.81,57.86-25.91,13.5-55.03,20.85-85.09,20.85-50.84,0-96.87-20.61-130.19-53.92C30.57,291.54,9.96,245.51,9.96,194.68c0-16.6,2.27-33.1,6.69-49.07,3.93-14.24,9.6-28,16.88-40.99,6.49-10.83,15.74-10.06,22.6-1.75l70.42,80.02,50.09-74.16h0v-.02ZM327.34,245.28c3.42-3.64,9.15-3.81,12.8-.39s3.81,9.15.39,12.8c-8.55,9.12-18.83,16.28-30.13,21.16-11.32,4.9-23.57,7.51-36.04,7.51-25.06,0-47.75-10.16-64.18-26.58-16.43-16.43-26.58-39.11-26.58-64.18s10.16-47.75,26.58-64.18c16.43-16.43,39.11-26.58,64.18-26.58v.04h59.33c-12.85-19.99-29.7-36.76-49.22-49.43-26.35-17.11-57.58-26.74-90.39-26.74-9.78,0-19.5.86-29.06,2.55-9.57,1.7-18.98,4.24-28.12,7.58-4.7,1.72-9.9-.69-11.62-5.39s.69-9.9,5.39-11.62c10.18-3.74,20.64-6.55,31.24-8.44,10.62-1.88,21.38-2.84,32.17-2.84,36.32,0,70.96,10.71,100.24,29.71,24.76,16.08,45.65,38.09,60.45,64.6,6.91,13.65-4.09,18.02-11,18.07h-69.41v.04c-20.05,0-38.21,8.12-51.34,21.27-13.14,13.14-21.27,31.29-21.27,51.34s8.12,38.21,21.27,51.34c13.14,13.14,31.29,21.27,51.34,21.27,10.1,0,19.92-2.06,28.88-5.95,8.98-3.9,17.21-9.64,24.11-16.98h0Z"/>
  </g>
</svg>